<svg width="14" height="15" viewBox="0 0 14 15" fill="none" xmlns="http://www.w3.org/2000/svg">
<path d="M3.28125 1.375C2.67692 1.375 2.1875 1.865 2.1875 2.46875V12.5312C2.1875 13.135 2.6775 13.625 3.28125 13.625H10.7188C11.3225 13.625 11.8125 13.135 11.8125 12.5312V7.9375C11.8125 7.35734 11.582 6.80094 11.1718 6.3907C10.7616 5.98047 10.2052 5.75 9.625 5.75H8.53125C8.24117 5.75 7.96297 5.63477 7.75785 5.42965C7.55273 5.22453 7.4375 4.94633 7.4375 4.65625V3.5625C7.4375 2.98234 7.20703 2.42594 6.7968 2.0157C6.38656 1.60547 5.83016 1.375 5.25 1.375H3.28125Z" fill="#334155"/>
<path d="M7.56641 1.55933C8.04854 2.11522 8.31351 2.82664 8.31249 3.56249V4.65624C8.31249 4.77699 8.41049 4.87499 8.53124 4.87499H9.62499C10.3608 4.87397 11.0723 5.13894 11.6282 5.62108C11.3715 4.64499 10.8602 3.75458 10.1466 3.04093C9.4329 2.32727 8.54249 1.81597 7.56641 1.55933Z" fill="#334155"/>
</svg>
