<svg width="15" height="15" viewBox="0 0 15 15" fill="none" xmlns="http://www.w3.org/2000/svg">
<path fill-rule="evenodd" clip-rule="evenodd" d="M1.8125 7.5C1.8125 4.35875 4.35875 1.8125 7.5 1.8125C10.6412 1.8125 13.1875 4.35875 13.1875 7.5C13.1875 10.6412 10.6412 13.1875 7.5 13.1875C4.35875 13.1875 1.8125 10.6412 1.8125 7.5ZM7.5 5.3125C7.61603 5.3125 7.72731 5.35859 7.80936 5.44064C7.89141 5.52269 7.9375 5.63397 7.9375 5.75V7.9375C7.9375 8.05353 7.89141 8.16481 7.80936 8.24686C7.72731 8.32891 7.61603 8.375 7.5 8.375C7.38397 8.375 7.27269 8.32891 7.19064 8.24686C7.10859 8.16481 7.0625 8.05353 7.0625 7.9375V5.75C7.0625 5.63397 7.10859 5.52269 7.19064 5.44064C7.27269 5.35859 7.38397 5.3125 7.5 5.3125ZM7.5 10.125C7.61603 10.125 7.72731 10.0789 7.80936 9.99686C7.89141 9.91481 7.9375 9.80353 7.9375 9.6875C7.9375 9.57147 7.89141 9.46019 7.80936 9.37814C7.72731 9.29609 7.61603 9.25 7.5 9.25C7.38397 9.25 7.27269 9.29609 7.19064 9.37814C7.10859 9.46019 7.0625 9.57147 7.0625 9.6875C7.0625 9.80353 7.10859 9.91481 7.19064 9.99686C7.27269 10.0789 7.38397 10.125 7.5 10.125Z" fill="#334155"/>
</svg>
